# xmcd CD database file
#
# Track frame offsets:
#	150
#	18959
#	38743
#	58666
#	75942
#	96840
#	114116
#	130138
#	149783
#	167059
#	189629
#	209274
#	232680
#
# Disc length: 3397 seconds
#
# Revision: 0
# Processed by: cddbd v1.5.2PL0 Copyright (c) Steve Scherf et al.
# Submitted via: jetAudio 7
#
DISCID=a20d430d
DTITLE=張毅 韋瑋 - 高低和鳴
DYEAR=1900
DGENRE=장르 없음
TTITLE0=沉思
TTITLE1=童話
TTITLE2=流星下的願
TTITLE3=遇見
TTITLE4=卡薩布蘭卡
TTITLE5=我愛你這樣深
TTITLE6=斯卡保羅集市
TTITLE7=不能遵守的諾言
TTITLE8=心有獨鍾
TTITLE9=那一場風花雪月的事
TTITLE10=愛我
TTITLE11=你是幸福的我就是快樂的
TTITLE12=美麗的神話
EXTD=
EXTT0=
EXTT1=
EXTT2=
EXTT3=
EXTT4=
EXTT5=
EXTT6=
EXTT7=
EXTT8=
EXTT9=
EXTT10=
EXTT11=
EXTT12=
PLAYORDER=
